/* XPM */
static char *_46eb5781afb45c0a55e56a90443a11c548dQw0lI7psUTrp[] = {
/* columns rows colors chars-per-pixel */
"35 32 52 1 ",
"  c #3E8948",
". c black",
"X c gray13",
"o c #2C2227",
"O c #D78C77",
"+ c #EB9486",
"@ c #EDAF97",
"# c #F1B29E",
"$ c #DBB1A6",
"% c #DCB2AA",
"& c #DFB3AB",
"* c #DEB5A8",
"= c #E6B4A0",
"- c #E1B5AD",
"; c #E1B8AA",
": c #E3BAAD",
"> c #E2B8AF",
", c #FBD3B1",
"< c #FBD2B3",
"1 c #FDD5B5",
"2 c #FDD7B6",
"3 c #FED8B7",
"4 c #EAC6C2",
"5 c #FAF3E5",
"6 c #FBF2E7",
"7 c #FDF3E6",
"8 c #F9F5E6",
"9 c #FBF4E6",
"0 c #FDF4E4",
"q c #FEF5E6",
"w c #FDF7E7",
"e c #FFF8E4",
"r c #FEF8E6",
"t c #FBF4E8",
"y c #FAF6E8",
"u c #F9F4EA",
"i c #FAF6EA",
"p c #FEF4E8",
"a c #FDF6E9",
"s c #FDF6EB",
"d c #FEF7EA",
"f c #FAF5EC",
"g c #FCF6ED",
"h c #FEF7EC",
"j c #FEF7EE",
"k c #FDF9E8",
"l c #FDF8EA",
"z c #FDF8EE",
"x c #FEF9EF",
"c c #FBF8F0",
"v c #FEF8F3",
"b c white",
/* pixels */
"                                   ",
"                                   ",
"                                   ",
"                                   ",
"          XX          XX           ",
"         X1XXXXXXXXXXX1X           ",
"         XO1X11=1=11X1OOX          ",
"         XO1X11=1=11X1OOX          ",
"         XO1111=1=11111OX          ",
"         X1111111=11111OX          ",
"         X1111<<11111111X          ",
"        X111111111111111X          ",
"        X111b.11111b.111X          ",
"        o111..11.11..131X          ",
"        X1++qqq.q.qqq++<X          ",
"         X++qqqqqqqqq++qX          ",
"         XqqqqqqqqqqqqqX           ",
"          XqaqqqqqqqqqX            ",
"           X4qqqqqqq:X    XXX      ",
"           Xq:-%%$*;qX   X===X     ",
"           Xqqqqqqqqq#X   X==X     ",
"          Xqqqqqqqqhq@=X  X==X     ",
"          Xqqqaaaaqqqq=X  Xe=X     ",
"          Xqqqqqqqqqqq=X  Xk=X     ",
"          Xqqq6Xqqqq=qqXX Xk=X     ",
"          Xqqq8Xqqqy=qqkkXXk=X     ",
"       XXXX=qqyXqkaXXXX=kXke=X     ",
"      Xy888XqqfXqyX6czz=kXk==X     ",
"      X=a88XqqhXqkX=qkk==k==X      ",
"      X==88XvqqXqkX==7h====X       ",
"       X==8X===XqaX=====XXX        ",
"        XXXXXXXXXXXXXXXX           "
};
