/* XPM */
static char *_6e3d61b38ec4438ad4fbade9d2158d9VX4oFZ0QuM9Utgy1[] = {
/* columns rows colors chars-per-pixel */
"16 16 27 1 ",
"  c black",
". c #170625",
"X c None",
"o c #1C1030",
"O c #1C1030",
"+ c #BC6A57",
"@ c #170625",
"# c #E6A283",
"$ c #A22719",
"% c #C4391C",
"& c #63121A",
"* c #DA5A25",
"= c #F47225",
"- c #F47325",
"; c #A12619",
": c #FF9137",
"> c #F47327",
", c #FF9036",
"< c #FFD674",
"1 c #FFBB5C",
"2 c #CC5325",
"3 c #7D1616",
"4 c #FF9037",
"5 c #C53A1C",
"6 c #C43A1C",
"7 c #A12617",
"8 c white",
/* pixels */
"                ",
"       O     O  ",
"      O+@   @#@ ",
"      @+#O @@+#@",
"     @$%&@@%+@@ ",
"    @*=-@;*:$@  ",
"@  @%>,<&%1*@ . ",
"@@&%2*=:3*:%@X  ",
"@3$2-@%*4;5$@o  ",
"@$6*2&@%*573@o  ",
"@%$%%3*&%73@.   ",
"@%@7%&%3$3@o    ",
"@$2&$@$$3@o     ",
".@@&$%@3@o      ",
" ..@@@@@o       ",
"   .....        "
};
