/* XPM */
static char * chicken_xpm[] = {
"32 32 364 2",
"  	c #3E8948",
". 	c #5C3236",
"+ 	c #905048",
"@ 	c #905046",
"# 	c #5C3131",
"$ 	c #B07B66",
"% 	c #714D44",
"& 	c #68393C",
"* 	c #A45D4F",
"= 	c #AF6655",
"- 	c #945E51",
"; 	c #704D44",
"> 	c #7A5148",
", 	c #C1836B",
"' 	c #CA8A70",
") 	c #A16E5C",
"! 	c #683739",
"~ 	c #A55D4E",
"{ 	c #C17660",
"] 	c #C7866D",
"^ 	c #6F423E",
"/ 	c #B06D5A",
"( 	c #CA826A",
"_ 	c #B07B65",
": 	c #4A0C1E",
"< 	c #7C3230",
"[ 	c #AA5344",
"} 	c #C36F59",
"| 	c #CB846B",
"1 	c #B57C66",
"2 	c #724D48",
"3 	c #693233",
"4 	c #7B433E",
"5 	c #985549",
"6 	c #7C1C1D",
"7 	c #9E2F23",
"8 	c #B7422E",
"9 	c #B84F3B",
"0 	c #A45645",
"a 	c #844E43",
"b 	c #523034",
"c 	c #0E0726",
"d 	c #0D0221",
"e 	c #5E161E",
"f 	c #962A1F",
"g 	c #AA4030",
"h 	c #A75345",
"i 	c #975448",
"j 	c #8D3523",
"k 	c #AE3F1F",
"l 	c #C3461C",
"m 	c #CD491C",
"n 	c #BB411C",
"o 	c #86291D",
"p 	c #56101F",
"q 	c #551021",
"r 	c #5F1923",
"s 	c #702624",
"t 	c #983C24",
"u 	c #C35225",
"v 	c #CF5D33",
"w 	c #C05E45",
"x 	c #A05245",
"y 	c #643133",
"z 	c #160624",
"A 	c #C95524",
"B 	c #DB6023",
"C 	c #E56622",
"D 	c #E86722",
"E 	c #CD5921",
"F 	c #853520",
"G 	c #55091F",
"H 	c #7B181D",
"I 	c #9B301F",
"J 	c #B44523",
"K 	c #CF5F29",
"L 	c #E7772F",
"M 	c #E37532",
"N 	c #C15933",
"O 	c #953830",
"P 	c #5A1D28",
"Q 	c #CB5625",
"R 	c #E76926",
"S 	c #F27529",
"T 	c #F88433",
"U 	c #F79040",
"V 	c #D9833F",
"W 	c #8E512F",
"X 	c #651320",
"Y 	c #95221C",
"Z 	c #BC4C25",
"` 	c #D86F34",
" .	c #EA8038",
"..	c #F28435",
"+.	c #E1752E",
"@.	c #B14D24",
"#.	c #C04621",
"$.	c #E06225",
"%.	c #FA8330",
"&.	c #FE9C45",
"*.	c #FDB65C",
"=.	c #E0AA5A",
"-.	c #9A6B3C",
";.	c #7A181C",
">.	c #A7291A",
",.	c #CE6631",
"'.	c #EA9548",
").	c #F39C4A",
"!.	c #EA8139",
"~.	c #CC5F29",
"{.	c #8F3923",
"].	c #4D0D1D",
"^.	c #8A2822",
"/.	c #B43920",
"(.	c #D14F21",
"_.	c #E56425",
":.	c #F98330",
"<.	c #FE9E46",
"[.	c #FFBA5E",
"}.	c #E4AE5B",
"|.	c #A26E3B",
"1.	c #8A1F19",
"2.	c #B6371B",
"3.	c #DB7034",
"4.	c #F49E4B",
"5.	c #F6A04B",
"6.	c #E27736",
"7.	c #BA4824",
"8.	c #742724",
"9.	c #130520",
"0.	c #9B2B1D",
"a.	c #B43A20",
"b.	c #C44722",
"c.	c #D15323",
"d.	c #DC5D25",
"e.	c #E76826",
"f.	c #FA8937",
"g.	c #FD9E46",
"h.	c #E59244",
"i.	c #A95D2D",
"j.	c #962C1A",
"k.	c #C1461F",
"l.	c #E26E2E",
"m.	c #F6903D",
"n.	c #F48E3C",
"o.	c #DA662C",
"p.	c #B03920",
"q.	c #6D1D23",
"r.	c #91271B",
"s.	c #B6391D",
"t.	c #CB4A20",
"u.	c #D45723",
"v.	c #D15925",
"w.	c #C65225",
"x.	c #CB5524",
"y.	c #DF6123",
"z.	c #EE7028",
"A.	c #F37F2F",
"B.	c #E67A2F",
"C.	c #C36227",
"D.	c #B54F22",
"E.	c #C44F22",
"F.	c #D86127",
"G.	c #E9772E",
"H.	c #E6732D",
"I.	c #CC5223",
"J.	c #A42D1E",
"K.	c #661722",
"L.	c #8C1F1A",
"M.	c #A5311C",
"N.	c #BF4521",
"O.	c #D55723",
"P.	c #E36525",
"Q.	c #D46025",
"R.	c #A14525",
"S.	c #963723",
"T.	c #BE4520",
"U.	c #D75521",
"V.	c #E06426",
"W.	c #E5702B",
"X.	c #E6792F",
"Y.	c #DA712C",
"Z.	c #C25323",
"`.	c #BD441F",
" +	c #CD5222",
".+	c #CD5122",
"++	c #B83C1D",
"@+	c #96251D",
"#+	c #5D1422",
"$+	c #922017",
"%+	c #A42919",
"&+	c #B63A1D",
"*+	c #C84D23",
"=+	c #D85C25",
"-+	c #E46725",
";+	c #CE5E24",
">+	c #883A23",
",+	c #651821",
"'+	c #952820",
")+	c #B63A20",
"!+	c #CC4C22",
"~+	c #DF6428",
"{+	c #EF7A2F",
"]+	c #E6752E",
"^+	c #C35122",
"/+	c #B12F1A",
"(+	c #B8321A",
"_+	c #B5321A",
":+	c #871E1C",
"<+	c #A32819",
"[+	c #C4411E",
"}+	c #D05123",
"|+	c #D85A25",
"1+	c #C05123",
"2+	c #87321F",
"3+	c #58101F",
"4+	c #631621",
"5+	c #8B2822",
"6+	c #B73B20",
"7+	c #D25022",
"8+	c #DC6227",
"9+	c #C84920",
"0+	c #AF2C19",
"a+	c #A32717",
"b+	c #911F17",
"c+	c #76171B",
"d+	c #B02F1A",
"e+	c #B9341B",
"f+	c #C33F1D",
"g+	c #CF4D21",
"h+	c #D35223",
"i+	c #CD4F23",
"j+	c #B74320",
"k+	c #8C2B1C",
"l+	c #6E1D1D",
"m+	c #742922",
"n+	c #8A2F23",
"o+	c #A5311E",
"p+	c #BC3D1E",
"q+	c #CD4C21",
"r+	c #C43F1D",
"s+	c #A32818",
"t+	c #901F17",
"u+	c #7A1719",
"v+	c #A52E1E",
"w+	c #B8331B",
"x+	c #B1301A",
"y+	c #B5341B",
"z+	c #C33E1D",
"A+	c #CA431F",
"B+	c #C7411F",
"C+	c #B5381D",
"D+	c #912619",
"E+	c #8F2D1B",
"F+	c #AE4422",
"G+	c #B14523",
"H+	c #97311E",
"I+	c #9B2C1C",
"J+	c #BA3B1D",
"K+	c #B5331A",
"L+	c #A42918",
"M+	c #912017",
"N+	c #7A171A",
"O+	c #AC311F",
"P+	c #B7341C",
"Q+	c #9F291C",
"R+	c #9A271C",
"S+	c #B1301B",
"T+	c #BF361B",
"U+	c #C3381C",
"V+	c #B3321B",
"W+	c #912218",
"X+	c #982F1B",
"Y+	c #C14820",
"Z+	c #C04821",
"`+	c #912F1C",
" @	c #86201A",
".@	c #AB2E1B",
"+@	c #B4311A",
"@@	c #60111F",
"#@	c #B0321E",
"$@	c #822221",
"%@	c #751B20",
"&@	c #9A261B",
"*@	c #B22F19",
"=@	c #BE361B",
"-@	c #B1311B",
";@	c #8A211A",
">@	c #8E271B",
",@	c #B73B1D",
"'@	c #B93C1D",
")@	c #932819",
"!@	c #871D18",
"~@	c #9F2719",
"{@	c #5B101F",
"]@	c #AD331E",
"^@	c #8C2F23",
"/@	c #7C2922",
"(@	c #8B251C",
"_@	c #A12819",
":@	c #B3311A",
"<@	c #A82E1C",
"[@	c #7B1E1D",
"}@	c #7C1E1D",
"|@	c #992418",
"1@	c #8E1E17",
"2@	c #952118",
"3@	c #902019",
"4@	c #7B181A",
"5@	c #3C0C25",
"6@	c #96261D",
"7@	c #AE361D",
"8@	c #B14222",
"9@	c #A53F22",
"0@	c #892B1D",
"a@	c #881F19",
"b@	c #9F281A",
"c@	c #97261C",
"d@	c #681820",
"e@	c #671720",
"f@	c #A72A19",
"g@	c #9F2618",
"h@	c #962218",
"i@	c #8C1D17",
"j@	c #7A181A",
"k@	c #992F1F",
"l@	c #AB4023",
"m@	c #A23F22",
"n@	c #7F291D",
"o@	c #791919",
"p@	c #952219",
"q@	c #97251C",
"r@	c #7F2020",
"s@	c #771E21",
"t@	c #86201E",
"u@	c #91221B",
"v@	c #972319",
"w@	c #6D2724",
"x@	c #6E2622",
"y@	c #671B1D",
"z@	c #77191A",
"A@	c #942219",
"B@	c #A52A1B",
"C@	c #A92F1D",
"D@	c #9B2B20",
"E@	c #761E21",
"F@	c #681620",
"G@	c #7D191A",
"H@	c #5D111F",
"I@	c #4C0D20",
"J@	c #68151D",
"K@	c #821E1D",
"L@	c #97261D",
"M@	c #962A20",
"N@	c #3E0A22",
"O@	c #5E0F1E",
"P@	c #3E0C25",
"Q@	c #521122",
"R@	c #601622",
"S@	c #691B23",
"T@	c #601923",
"U@	c #3C0E25",
"V@	c #260724",
"W@	c #3A0923",
"                                                                ",
"                                                                ",
"                                                                ",
"                                                                ",
"                          . + @ #                   $ $ %       ",
"                          & * = - ;               > , ' )       ",
"                          ! ~ { ] $               ^ / ( ' _     ",
"                        : < [ } | 1 2           3 4 5 / , _     ",
"                        6 7 8 9 0 a b c d e f g h i 4 ^ >       ",
"                      j k l m n o p q r s t u v w x y z         ",
"                      A B C D E F G H I J K L M N O P           ",
"                    Q R S T U V W X Y Z `  ...+.@.6             ",
"                  #.$.S %.&.*.=.-.;.>.,.'.).!.~.{.].            ",
"              ^./.(._.S :.<.[.}.|.1.2.3.4.5.6.7.8.9.            ",
"            0.a.b.c.d.e.S f.g.h.i.j.k.l.m.n.o.p.q.              ",
"          r.s.t.u.v.w.x.y.z.A.B.C.D.E.F.G.H.I.J.K.              ",
"        L.M.N.O.P.Q.R.S.T.U.V.W.X.Y.Z.`. +.+++@+#+              ",
"      $+%+&+*+=+-+;+>+,+'+)+!+~+{+]+^+/+(+_+%+:+                ",
"      <+_+[+}+|+=+1+2+3+4+5+6+7+~+8+9+(+0+a+b+c+                ",
"      d+e+f+g+h+i+j+k+l+m+n+o+p+q+g+r+_+s+t+u+                  ",
"    v+w+x+y+z+A+B+C+D+E+F+G+H+I+J+z+K+L+M+N+                    ",
"    O+P+Q+R+S+T+U+V+W+X+Y+Z+`+ @.@+@L+t+u+@@                    ",
"    O+#@$@%@&@*@=@-@;@>@,@'@)@!@~@<+$+u+{@                      ",
"    v+]@^@/@(@_@:@<@[@}@<@x+|@1@2@3@4@@@5@                      ",
"    6@7@8@9@0@a@b@c@d@e@c@f@g@h@i@j@{@5@                        ",
"      k@l@m@n@o@p@q@r@s@t@u@v@3@4@@@5@                          ",
"        w@x@y@z@A@B@C@D@E@F@G@4@H@5@                            ",
"            I@J@K@L@v+M@r N@O@@@P@                              ",
"                Q@R@S@T@U@V@W@5@                                ",
"                                                                ",
"                                                                ",
"                                                                "};
