/* XPM */
static char * farm_tile_xpm[] = {
"32 32 24 1",
" 	c #E4A672",
".	c #E1A16C",
"+	c #DB975F",
"@	c #D99359",
"#	c #DF9E68",
"$	c #E3A571",
"%	c #DE9C65",
"&	c #C88154",
"*	c #C17A52",
"=	c #C17952",
"-	c #D38D57",
";	c #DB975E",
">	c #DC9860",
",	c #E1A26C",
"'	c #B86F50",
")	c #CB8455",
"!	c #D18B57",
"~	c #D18A57",
"{	c #B86E50",
"]	c #DD9C67",
"^	c #BF7752",
"/	c #D5915D",
"(	c #BA7250",
"_	c #E2A26C",
"  .+@@@#.$  ..@@@@..  $.#@@@+.  ",
" %@&**=-@;>>@@****@@>>;@-=**&@% ",
",-''''''')!!''''''''!!)'''''''-,",
"+=''''''''''''''''''''''''''''=+",
"!''''''''''''''''''''''''''''''!",
"!''''''''''''''''''''''''''''''!",
"~{''''''''''''''''''''''''''''{~",
"]^''''''''''''''''''''''''''''^]",
",=''''''''''''''''''''''''''''=,",
"$/''''''''''''''''''''''''''''/$",
" >''''''''''''''''''''''''''''> ",
" >''''''''''''''''''''''''''''> ",
",=''''''''''''''''''''''''''''=,",
",=''''''''''''''''''''''''''''=,",
"!''''''''''''''''''''''''''''''!",
"!''''''''''''''''''''''''''''''!",
"!''''''''''''''''''''''''''''''!",
"!''''''''''''''''''''''''''''''!",
",=''''''''''''''''''''''''''''=,",
",=''''''''''''''''''''''''''''=,",
" >''''''''''''''''''''''''''''> ",
" >''''''''''''''''''''''''''''> ",
"$/''''''''''''''''''''''''''''/$",
",=''''''''''''''''''''''''''''=,",
"]^''''''''''''''''''''''''''''^]",
"~{''''''''''''''''''''''''''''{~",
"!''''''''''''''''''''''''''''''!",
"!''''''''''''''''''''''''''''''!",
"/(''''''''''''''''''''''''''''(/",
"_*''''''''''''''''''''''''''''*_",
" %*(''{^=/>>==''''==>>/=^{''(*% ",
"  _/!!~],$  ,,!!!!,,  $,]~!!/_  "};
