/* XPM */
static char * house_xpm[] = {
"23 32 258 2",
"  	c None",
". 	c #854F3F",
"+ 	c #864F3F",
"@ 	c #91533B",
"# 	c #714035",
"$ 	c #9E463D",
"% 	c #8B4C3E",
"& 	c #713C33",
"* 	c #672A2C",
"= 	c #AA4B40",
"- 	c #A64D45",
"; 	c #884B3E",
"> 	c #703C33",
", 	c #692A2C",
"' 	c #6C2B2D",
") 	c #984843",
"! 	c #BB554A",
"~ 	c #BC5346",
"{ 	c #884B3D",
"] 	c #732D2E",
"^ 	c #7A2F2F",
"/ 	c #722D2E",
"( 	c #A5493F",
"_ 	c #AC4E44",
": 	c #A54C44",
"< 	c #AE4F45",
"[ 	c #712C2E",
"} 	c #7D3030",
"| 	c #6A2B2C",
"1 	c #AB4C40",
"2 	c #9D4943",
"3 	c #B45147",
"4 	c #B34F43",
"5 	c #A64C44",
"6 	c #894B3E",
"7 	c #702C2D",
"8 	c #752D2E",
"9 	c #90433D",
"0 	c #BD5A51",
"a 	c #B75144",
"b 	c #A04D48",
"c 	c #B6544A",
"d 	c #762E2E",
"e 	c #6E2C2D",
"f 	c #7F3030",
"g 	c #692B2C",
"h 	c #A1473E",
"i 	c #B05046",
"j 	c #A44B42",
"k 	c #B35248",
"l 	c #AD4E45",
"m 	c #A85049",
"n 	c #AE5046",
"o 	c #8A4C3E",
"p 	c #712D2E",
"q 	c #742D2E",
"r 	c #A84A3F",
"s 	c #A54C45",
"t 	c #AD5047",
"u 	c #9B4943",
"v 	c #B7574F",
"w 	c #B95245",
"x 	c #A64B42",
"y 	c #8A4B3D",
"z 	c #6A2A2C",
"A 	c #722C2E",
"B 	c #772E2F",
"C 	c #762E2F",
"D 	c #7B2F30",
"E 	c #9A4944",
"F 	c #BD5548",
"G 	c #94433D",
"H 	c #B25248",
"I 	c #9E4841",
"J 	c #B05249",
"K 	c #BB5346",
"L 	c #6F3C33",
"M 	c #782F2F",
"N 	c #7E3030",
"O 	c #6D2C2D",
"P 	c #B2534B",
"Q 	c #AE4D41",
"R 	c #A74C42",
"S 	c #AC4C41",
"T 	c #AA5048",
"U 	c #894C3E",
"V 	c #6F2C2D",
"W 	c #6D2B2D",
"X 	c #6E2B2D",
"Y 	c #792E2F",
"Z 	c #A44C43",
"` 	c #AE544E",
" .	c #BB5245",
"..	c #9A4741",
"+.	c #B05148",
"@.	c #AA4C42",
"#.	c #6B2B2D",
"$.	c #833131",
"%.	c #64292B",
"&.	c #954844",
"*.	c #C0594E",
"=.	c #96433C",
"-.	c #AF534B",
";.	c #BB5448",
">.	c #9D4740",
",.	c #AF524B",
"'.	c #B05045",
").	c #78453C",
"!.	c #8F523F",
"~.	c #714139",
"{.	c #723031",
"].	c #752E2E",
"^.	c #7B2F2F",
"/.	c #B55750",
"(.	c #AF4E42",
"_.	c #AB4E45",
":.	c #B15148",
"<.	c #B04E42",
"[.	c #9E4B45",
"}.	c #6B3B39",
"|.	c #583235",
"1.	c #683A37",
"2.	c #693937",
"3.	c #6F3031",
"4.	c #AE4E43",
"5.	c #A54B42",
"6.	c #A24C45",
"7.	c #BB5345",
"8.	c #A75450",
"9.	c #673938",
"0.	c #723F38",
"a.	c #643A36",
"b.	c #7F473A",
"c.	c #5C3435",
"d.	c #764238",
"e.	c #653736",
"f.	c #843535",
"g.	c #8C423F",
"h.	c #BD5549",
"i.	c #9D463E",
"j.	c #A94E46",
"k.	c #AF5147",
"l.	c #5E3535",
"m.	c #713E38",
"n.	c #7D4739",
"o.	c #6A3E36",
"p.	c #8F523C",
"q.	c #5C3535",
"r.	c #7B4539",
"s.	c #5F3536",
"t.	c #7C3333",
"u.	c #823131",
"v.	c #B2564F",
"w.	c #B35146",
"x.	c #9F4A42",
"y.	c #643737",
"z.	c #693A37",
"A.	c #7F4839",
"B.	c #6D4038",
"C.	c #965740",
"D.	c #6E3D37",
"E.	c #623636",
"F.	c #AF4F45",
"G.	c #A94C41",
"H.	c #944844",
"I.	c #653837",
"J.	c #693B37",
"K.	c #774338",
"L.	c #824939",
"M.	c #7C4739",
"N.	c #7E4839",
"O.	c #633736",
"P.	c #713132",
"Q.	c #894341",
"R.	c #6D3D37",
"S.	c #754238",
"T.	c #7B4638",
"U.	c #7B4639",
"V.	c #7C4738",
"W.	c #603636",
"X.	c #7E3434",
"Y.	c #6F2D2D",
"Z.	c #6A3C37",
"`.	c #6B3D36",
" +	c #6A3D36",
".+	c #6F3F37",
"++	c #744237",
"@+	c #724137",
"#+	c #673D37",
"$+	c #573234",
"%+	c #6E3E37",
"&+	c #714137",
"*+	c #6C3E36",
"=+	c #693C36",
"-+	c #683937",
";+	c #774438",
">+	c #734138",
",+	c #764338",
"'+	c #704138",
")+	c #8B523F",
"!+	c #864D3B",
"~+	c #8A513D",
"{+	c #8A513E",
"]+	c #804A39",
"^+	c #7B463A",
"/+	c #894E3A",
"(+	c #874C3A",
"_+	c #8E5440",
":+	c #724038",
"<+	c #7E4A3C",
"[+	c #4F3034",
"}+	c #5D3536",
"|+	c #583335",
"1+	c #623935",
"2+	c #6E3F38",
"3+	c #6E3F37",
"4+	c #7B483B",
"5+	c #725D5F",
"6+	c #6D6B71",
"7+	c #623C3C",
"8+	c #7B483C",
"9+	c #663937",
"0+	c #743F39",
"a+	c #6F3D38",
"b+	c #6A3D38",
"c+	c #7A473B",
"d+	c #3FBBCF",
"e+	c #01D3FA",
"f+	c #534C5D",
"g+	c #744238",
"h+	c #7B473A",
"i+	c #673A37",
"j+	c #703D38",
"k+	c #6F4038",
"l+	c #7E493B",
"m+	c #3DABCC",
"n+	c #00B4EB",
"o+	c #54485A",
"p+	c #7F4739",
"q+	c #794639",
"r+	c #94654C",
"s+	c #633935",
"t+	c #724239",
"u+	c #754337",
"v+	c #7F493A",
"w+	c #4182A7",
"x+	c #227EB6",
"y+	c #553947",
"z+	c #874D3A",
"A+	c #714037",
"B+	c #6D3C38",
"C+	c #764438",
"D+	c #784438",
"E+	c #915642",
"F+	c #724138",
"G+	c #4D2E33",
"H+	c #5D3734",
"I+	c #985942",
"                                              ",
"                      .                       ",
"                    + @ #                     ",
"                  $ % @ & *                   ",
"                = - ; @ > , '                 ",
"              ) ! ~ { @ > ] ^ /               ",
"            ( _ : < % @ & [ } [ |             ",
"          1 2 3 4 5 6 @ > , 7 8 / '           ",
"        9 0 a b c ~ { @ > ] d e [ f g         ",
"      h i j k l m n o @ > [ p ] } 7 q p       ",
"    r s t a u v w x y @ & z A B B [ C D [     ",
"    E F G H w I J K { @ L ] d M A N O 8 D     ",
"      P Q R H S T t U @ > V / W q 7 X Y       ",
"    S Z `  ...+.~ @.% @ & #.] $.%.C $.p W     ",
"    &.*.=.-.;.>.,.'.).!.~.{.] ' 8 ].* ^.]     ",
"      /.(._.:.<.[.}.|.1.|.2.3.V B [ V ^       ",
"    4.5.6.7.>.8.9.0.a.b.c.d.e.f.' 8 ].V 7     ",
"    g.h.i.j.k.l.m.n.o.p.q.r.d.s.t.u.W N /     ",
"      v.w.x.y.z.A.A.B.C.q.n.A.D.E.3.V u.      ",
"    F.G.H.I.J.K.L.M.B.C.q.n.L.N.J.O.P.e ]     ",
"    Q./.E.R.S.T.A.A.B.C.c.U.L.T.V.1.W.X.Y.    ",
"      }.Z.`. +.+++@+#+C.$+%+++&+*+=+1.-+      ",
"      ;+>+,+,+,+,+,+'+C.=+,+,+,+,+,+>+;+      ",
"      )+,+!+~+{+]+]+^+C.S./+/+/+/+(+,+)+      ",
"      _+:+<+[+}+|+1+2+C.3+4+5+6+7+N.S._+      ",
"      _+:+8+9+0+a+=+b+C. +c+d+e+f+;+g+_+      ",
"      _+>+h+i+0+j+=+k+C.3+l+m+n+o+p+S._+      ",
"      _+>+q+9+0+r+s+t+C.u+v+w+x+y+z+,+_+      ",
"      _+:+A+W.B+j+1+b+C.=+C+D+K.++K.g+_+      ",
"      E+F+`.G+    H+b+I+=+D+D+D+D+K.g+E+      ",
"                                              ",
"                                              "};
